<?xml version="1.0" encoding="UTF-8" standalone="no"?>
<!-- Created with Inkscape (http://www.inkscape.org/) -->

<svg
   xmlns:dc="http://purl.org/dc/elements/1.1/"
   xmlns:cc="http://creativecommons.org/ns#"
   xmlns:rdf="http://www.w3.org/1999/02/22-rdf-syntax-ns#"
   xmlns:svg="http://www.w3.org/2000/svg"
   xmlns="http://www.w3.org/2000/svg"
   xmlns:inkscape="http://www.inkscape.org/namespaces/inkscape"
   version="1.1"
   width="1250"
   height="1250"
   id="svg2"
   xml:space="preserve"><metadata
     id="metadata8"><rdf:RDF><cc:Work
         rdf:about=""><dc:format>image/svg+xml</dc:format><dc:type
           rdf:resource="http://purl.org/dc/dcmitype/StillImage" /></cc:Work></rdf:RDF></metadata><defs
     id="defs6" /><g
     transform="matrix(1.25,0,0,-1.25,0,1250)"
     id="g10"><g
       transform="scale(0.1,0.1)"
       id="g12"><path
         d="m 5952.07,5686.69 -3.82,70.52 -30.35,-16.35 10,-60.84 24.17,6.67"
         inkscape:connector-curvature="0"
         id="path16"
         style="fill:#f6ba82;fill-opacity:1;fill-rule:nonzero;stroke:none" /><path
         d="m 4991.06,17 961.012,0 0,5669.69 -961.012,0 0,-5669.69 z"
         inkscape:connector-curvature="0"
         id="path18"
         style="fill:#f6ba82;fill-opacity:1;fill-rule:nonzero;stroke:none" /><path
         d="m 4309.85,7426.67 c -51.12,-55.99 -79.58,-113.76 -79.58,-113.76 l 0,0 -12.66,-32.57 0,0 c 0,0 -66.91,-493.88 228.33,-1008.88 l 35.63,-59.48 0,0 79.98,-133.53 1809.87,-66.59 604.02,824.79 -2665.59,590.02"
         inkscape:connector-curvature="0"
         id="path20"
         style="fill:#f6ba82;fill-opacity:1;fill-rule:nonzero;stroke:none" /><path
         d="m 4499.42,6182.16 c 0,0 214.35,-431.3 491.64,-431.3 l 0,-418.6 957.19,0 0,424.95 c 0,0 277.25,11.06 547.89,424.95 l -1996.72,0"
         inkscape:connector-curvature="0"
         id="path22"
         style="fill:#f6ba82;fill-opacity:1;fill-rule:nonzero;stroke:none" /><path
         d="m 6716.82,6577.36 c 0,-263.07 -457.95,-476.33 -1022.85,-476.33 -564.91,0 -1022.86,213.26 -1022.86,476.33 0,263.07 457.95,476.34 1022.86,476.34 564.9,0 1022.85,-213.27 1022.85,-476.34"
         inkscape:connector-curvature="0"
         id="path24"
         style="fill:#e9b17c;fill-opacity:1;fill-rule:nonzero;stroke:none" /><path
         d="m 6740.7,6542.87 c 0,-69.74 -56.54,-126.28 -126.28,-126.28 l -1816.99,0 c -69.74,0 -126.28,56.54 -126.28,126.28 l 0,2258.88 c 0,69.74 56.54,126.28 126.28,126.28 l 1816.99,0 c 69.74,0 126.28,-56.54 126.28,-126.28 l 0,-2258.88"
         inkscape:connector-curvature="0"
         id="path26"
         style="fill:#343434;fill-opacity:1;fill-rule:nonzero;stroke:none" /><path
         d="m 4881.61,6670.44 1648.63,0 0,2006.41 -1648.63,0 0,-2006.41 z"
         inkscape:connector-curvature="0"
         id="path28"
         style="fill:#d44720;fill-opacity:1;fill-rule:nonzero;stroke:none" /><path
         d="m 4916.69,6670.44 1613.55,0 0,1971.33 -1613.55,0 0,-1971.33 z"
         inkscape:connector-curvature="0"
         id="path30"
         style="fill:#eb514b;fill-opacity:1;fill-rule:nonzero;stroke:none" /><path
         d="m 5856.76,6527.99 c 0,-25.06 -20.32,-45.37 -45.38,-45.37 l -189.87,0 c -25.06,0 -45.37,20.31 -45.37,45.37 l 0,0 c 0,25.06 20.31,45.37 45.37,45.37 l 189.87,0 c 25.06,0 45.38,-20.31 45.38,-45.37 l 0,0"
         inkscape:connector-curvature="0"
         id="path32"
         style="fill:#1f1e1d;fill-opacity:1;fill-rule:nonzero;stroke:none" /><path
         d="m 4874.55,7757.4 -456.09,-247.05 0,0 c 0,0 -85.47,-56.74 -126.28,-103.96 l 143.77,-265.42 597.26,323.52 -158.66,292.91"
         inkscape:connector-curvature="0"
         id="path34"
         style="fill:#f6ba82;fill-opacity:1;fill-rule:nonzero;stroke:none" /><path
         d="m 4671.11,7268.35 0,-326.34 -90.54,277.3 90.54,49.04"
         inkscape:connector-curvature="0"
         id="path36"
         style="fill:#e9b17c;fill-opacity:1;fill-rule:nonzero;stroke:none" /><path
         d="m 5131.75,7616.74 c 0,-92.8 -75.22,-168.02 -168.02,-168.02 -92.8,0 -168.03,75.22 -168.03,168.02 0,92.8 75.23,168.03 168.03,168.03 92.8,0 168.02,-75.23 168.02,-168.03"
         inkscape:connector-curvature="0"
         id="path38"
         style="fill:#f8ccaa;fill-opacity:1;fill-rule:nonzero;stroke:none" /><path
         d="m 6871.19,7941.85 129.53,-239.13 -415.79,-225.22 -129.52,239.13 415.78,225.22"
         inkscape:connector-curvature="0"
         id="path40"
         style="fill:#f6ba82;fill-opacity:1;fill-rule:nonzero;stroke:none" /><path
         d="m 6374.95,7592.33 c 0,75.76 61.42,137.18 137.18,137.18 75.76,0 137.18,-61.42 137.18,-137.18 0,-75.76 -61.42,-137.17 -137.18,-137.17 -75.76,0 -137.18,61.41 -137.18,137.17"
         inkscape:connector-curvature="0"
         id="path42"
         style="fill:#f6ba82;fill-opacity:1;fill-rule:nonzero;stroke:none" /><path
         d="m 6884.15,7640.5 129.53,-239.13 -512.73,-277.73 -129.53,239.13 512.73,277.73"
         inkscape:connector-curvature="0"
         id="path44"
         style="fill:#f6ba82;fill-opacity:1;fill-rule:nonzero;stroke:none" /><path
         d="m 6290.97,7238.47 c 0,75.76 61.41,137.17 137.17,137.17 75.77,0 137.18,-61.41 137.18,-137.17 0,-75.76 -61.41,-137.18 -137.18,-137.18 -75.76,0 -137.17,61.42 -137.17,137.18"
         inkscape:connector-curvature="0"
         id="path46"
         style="fill:#f6ba82;fill-opacity:1;fill-rule:nonzero;stroke:none" /><path
         d="m 6876.7,7330.32 129.53,-239.13 -417.3,-226.03 -129.53,239.13 417.3,226.03"
         inkscape:connector-curvature="0"
         id="path48"
         style="fill:#f6ba82;fill-opacity:1;fill-rule:nonzero;stroke:none" /><path
         d="m 6378.95,6979.99 c 0,75.76 61.42,137.17 137.18,137.17 75.76,0 137.18,-61.41 137.18,-137.17 0,-75.76 -61.42,-137.18 -137.18,-137.18 -75.76,0 -137.18,61.42 -137.18,137.18"
         inkscape:connector-curvature="0"
         id="path50"
         style="fill:#f6ba82;fill-opacity:1;fill-rule:nonzero;stroke:none" /><path
         d="m 6875.68,7020.81 99.76,-184.16 -297.67,-161.24 -99.75,184.17 297.66,161.23"
         inkscape:connector-curvature="0"
         id="path52"
         style="fill:#f6ba82;fill-opacity:1;fill-rule:nonzero;stroke:none" /><path
         d="m 6516.06,6763.84 c 0,58.35 47.3,105.65 105.64,105.65 58.35,0 105.65,-47.3 105.65,-105.65 0,-58.34 -47.3,-105.64 -105.65,-105.64 -58.34,0 -105.64,47.3 -105.64,105.64"
         inkscape:connector-curvature="0"
         id="path54"
         style="fill:#f6ba82;fill-opacity:1;fill-rule:nonzero;stroke:none" /><path
         d="m 6871.19,7941.85 c 0,0 176.82,-49.03 129.53,-239.13 l -116.57,-62.22 c 0,0 147.13,-48.39 129.53,-239.13 l -136.98,-71.05 c 0,0 163.68,-58.61 129.53,-239.13 l -130.55,-70.38 c 0,0 133.78,-32.9 99.76,-184.16 l -183.33,-24.62 79.08,1129.82"
         inkscape:connector-curvature="0"
         id="path56"
         style="fill:#f6ba82;fill-opacity:1;fill-rule:nonzero;stroke:none" /><path
         d="m 6606.48,7643.08 c 30.29,-56.19 17.91,-121.65 -27.66,-146.22 -45.57,-24.56 -107.06,1.08 -137.35,57.27 -30.29,56.19 -17.91,121.66 27.66,146.22 45.57,24.57 107.06,-1.08 137.35,-57.27"
         inkscape:connector-curvature="0"
         id="path58"
         style="fill:#e6d4c6;fill-opacity:1;fill-rule:nonzero;stroke:none" /><path
         d="m 6517.92,7292.51 c 30.29,-56.19 17.9,-121.65 -27.67,-146.22 -45.56,-24.56 -107.06,1.08 -137.35,57.27 -30.29,56.19 -17.9,121.66 27.66,146.22 45.57,24.56 107.07,-1.08 137.36,-57.27"
         inkscape:connector-curvature="0"
         id="path60"
         style="fill:#e6d4c6;fill-opacity:1;fill-rule:nonzero;stroke:none" /><path
         d="m 6608.74,7032.46 c 30.29,-56.19 17.91,-121.65 -27.66,-146.22 -45.57,-24.56 -107.06,1.08 -137.35,57.27 -30.29,56.19 -17.9,121.66 27.66,146.22 45.57,24.56 107.07,-1.08 137.35,-57.27"
         inkscape:connector-curvature="0"
         id="path62"
         style="fill:#e6d4c6;fill-opacity:1;fill-rule:nonzero;stroke:none" /><path
         d="m 6701.98,6800.61 c 24.82,-46.06 14.67,-99.72 -22.68,-119.86 -37.35,-20.13 -87.76,0.89 -112.59,46.95 -24.83,46.06 -14.68,99.72 22.68,119.85 37.35,20.14 87.76,-0.88 112.59,-46.94"
         inkscape:connector-curvature="0"
         id="path64"
         style="fill:#e6d4c6;fill-opacity:1;fill-rule:nonzero;stroke:none" /><path
         d="m 5068.89,7680.06 c 36.11,-67 15.69,-148.11 -45.61,-181.16 -61.31,-33.05 -140.29,-5.52 -176.41,61.48 -36.12,67 -15.7,148.11 45.61,181.16 61.31,33.05 140.29,5.52 176.41,-61.48"
         inkscape:connector-curvature="0"
         id="path66"
         style="fill:#e6d4c6;fill-opacity:1;fill-rule:nonzero;stroke:none" /><path
         d="m 6634.34,6890.09 241.34,130.72 c 0,0 35.52,-13.77 47.09,-22.79 11.58,-9.02 0,0 0,0 l -288.43,-107.93"
         inkscape:connector-curvature="0"
         id="path68"
         style="fill:#e9b17c;fill-opacity:1;fill-rule:nonzero;stroke:none" /><path
         d="m 6876.7,7330.32 c 0,0 46.55,-23.65 60.79,-36.5 14.24,-12.84 0,0 0,0 l -413.52,-157.71 352.73,194.21"
         inkscape:connector-curvature="0"
         id="path70"
         style="fill:#e9b17c;fill-opacity:1;fill-rule:nonzero;stroke:none" /><path
         d="m 6407.05,7382.07 477.1,258.43 c 0,0 49.51,-25.14 65.2,-41.89 l -542.3,-216.54"
         inkscape:connector-curvature="0"
         id="path72"
         style="fill:#e9b17c;fill-opacity:1;fill-rule:nonzero;stroke:none" /><path
         d="m 6740.7,6709.49 229.07,126.39 -229.07,-203.83 0,77.44"
         inkscape:connector-curvature="0"
         id="path74"
         style="fill:#e9b17c;fill-opacity:1;fill-rule:nonzero;stroke:none" /><path
         d="m 8355.55,4269.95 -3.82,70.52 -30.35,-16.36 10,-60.83 24.17,6.67"
         inkscape:connector-curvature="0"
         id="path76"
         style="fill:#f8ccaa;fill-opacity:1;fill-rule:nonzero;stroke:none" /><path
         d="m 7394.55,39.9492 961,0 0,4230 -961,0 0,-4230 z"
         inkscape:connector-curvature="0"
         id="path78"
         style="fill:#f8ccaa;fill-opacity:1;fill-rule:nonzero;stroke:none" /><path
         d="m 6713.34,6009.93 c -51.13,-55.99 -79.59,-113.76 -79.59,-113.76 l 0,0 -12.66,-32.57 0,0 c 0,0 -66.91,-493.88 228.33,-1008.88 l 35.63,-59.49 0,0 79.98,-133.52 1809.87,-66.6 604.03,824.79 -2665.59,590.03"
         inkscape:connector-curvature="0"
         id="path80"
         style="fill:#f8ccaa;fill-opacity:1;fill-rule:nonzero;stroke:none" /><path
         d="m 6902.91,4765.42 c 0,0 214.35,-431.3 491.64,-431.3 l 0,-418.6 957.18,0 0,424.95 c 0,0 277.25,11.05 547.9,424.95 l -1996.72,0"
         inkscape:connector-curvature="0"
         id="path82"
         style="fill:#f8ccaa;fill-opacity:1;fill-rule:nonzero;stroke:none" /><path
         d="m 9120.3,5160.62 c 0,-263.07 -457.94,-476.34 -1022.85,-476.34 -564.91,0 -1022.85,213.27 -1022.85,476.34 0,263.07 457.94,476.33 1022.85,476.33 564.91,0 1022.85,-213.26 1022.85,-476.33"
         inkscape:connector-curvature="0"
         id="path84"
         style="fill:#e9b17c;fill-opacity:1;fill-rule:nonzero;stroke:none" /><path
         d="m 9144.18,5126.13 c 0,-69.74 -56.53,-126.28 -126.27,-126.28 l -1817,0 c -69.74,0 -126.27,56.54 -126.27,126.28 l 0,2258.88 c 0,69.74 56.53,126.27 126.27,126.27 l 1817,0 c 69.74,0 126.27,-56.53 126.27,-126.27 l 0,-2258.88"
         inkscape:connector-curvature="0"
         id="path86"
         style="fill:#343434;fill-opacity:1;fill-rule:nonzero;stroke:none" /><path
         d="m 7285.1,5253.7 1648.62,0 0,2006.4 -1648.62,0 0,-2006.4 z"
         inkscape:connector-curvature="0"
         id="path88"
         style="fill:#d4d6d8;fill-opacity:1;fill-rule:nonzero;stroke:none" /><path
         d="m 7320.17,5253.7 1613.55,0 0,1971.33 -1613.55,0 0,-1971.33 z"
         inkscape:connector-curvature="0"
         id="path90"
         style="fill:#f2f2f2;fill-opacity:1;fill-rule:nonzero;stroke:none" /><path
         d="m 8260.24,5111.25 c 0,-25.06 -20.32,-45.38 -45.37,-45.38 l -189.87,0 c -25.06,0 -45.38,20.32 -45.38,45.38 l 0,0 c 0,25.05 20.32,45.37 45.38,45.37 l 189.87,0 c 25.05,0 45.37,-20.32 45.37,-45.37 l 0,0"
         inkscape:connector-curvature="0"
         id="path92"
         style="fill:#1f1e1d;fill-opacity:1;fill-rule:nonzero;stroke:none" /><path
         d="m 7278.04,6340.65 -456.1,-247.05 0,0 c 0,0 -85.47,-56.74 -126.28,-103.96 l 143.77,-265.41 597.26,323.51 -158.65,292.91"
         inkscape:connector-curvature="0"
         id="path94"
         style="fill:#f8ccaa;fill-opacity:1;fill-rule:nonzero;stroke:none" /><path
         d="m 7074.6,5851.61 0,-326.35 -90.55,277.3 90.55,49.05"
         inkscape:connector-curvature="0"
         id="path96"
         style="fill:#e9b17c;fill-opacity:1;fill-rule:nonzero;stroke:none" /><path
         d="m 7535.24,6200 c 0,-92.8 -75.23,-168.03 -168.03,-168.03 -92.8,0 -168.03,75.23 -168.03,168.03 0,92.8 75.23,168.03 168.03,168.03 92.8,0 168.03,-75.23 168.03,-168.03"
         inkscape:connector-curvature="0"
         id="path98"
         style="fill:#f8ccaa;fill-opacity:1;fill-rule:nonzero;stroke:none" /><path
         d="m 9274.67,6525.11 129.53,-239.13 -415.78,-225.22 -129.53,239.13 415.78,225.22"
         inkscape:connector-curvature="0"
         id="path100"
         style="fill:#f8ccaa;fill-opacity:1;fill-rule:nonzero;stroke:none" /><path
         d="m 8778.44,6175.59 c 0,75.76 61.41,137.18 137.17,137.18 75.77,0 137.18,-61.42 137.18,-137.18 0,-75.76 -61.41,-137.18 -137.18,-137.18 -75.76,0 -137.17,61.42 -137.17,137.18"
         inkscape:connector-curvature="0"
         id="path102"
         style="fill:#f8ccaa;fill-opacity:1;fill-rule:nonzero;stroke:none" /><path
         d="m 9287.64,6223.76 129.53,-239.13 -512.74,-277.74 -129.53,239.13 512.74,277.74"
         inkscape:connector-curvature="0"
         id="path104"
         style="fill:#f8ccaa;fill-opacity:1;fill-rule:nonzero;stroke:none" /><path
         d="m 8694.45,5821.72 c 0,75.77 61.42,137.18 137.18,137.18 75.76,0 137.17,-61.41 137.17,-137.18 0,-75.76 -61.41,-137.17 -137.17,-137.17 -75.76,0 -137.18,61.41 -137.18,137.17"
         inkscape:connector-curvature="0"
         id="path106"
         style="fill:#f8ccaa;fill-opacity:1;fill-rule:nonzero;stroke:none" /><path
         d="m 9280.19,5913.58 129.52,-239.13 -417.29,-226.04 -129.53,239.13 417.3,226.04"
         inkscape:connector-curvature="0"
         id="path108"
         style="fill:#f8ccaa;fill-opacity:1;fill-rule:nonzero;stroke:none" /><path
         d="m 8782.44,5563.24 c 0,75.77 61.41,137.18 137.17,137.18 75.76,0 137.18,-61.41 137.18,-137.18 0,-75.76 -61.42,-137.17 -137.18,-137.17 -75.76,0 -137.17,61.41 -137.17,137.17"
         inkscape:connector-curvature="0"
         id="path110"
         style="fill:#f8ccaa;fill-opacity:1;fill-rule:nonzero;stroke:none" /><path
         d="m 9279.17,5604.07 99.76,-184.17 -297.67,-161.24 -99.76,184.17 297.67,161.24"
         inkscape:connector-curvature="0"
         id="path112"
         style="fill:#f8ccaa;fill-opacity:1;fill-rule:nonzero;stroke:none" /><path
         d="m 8919.54,5347.1 c 0,58.35 47.3,105.65 105.65,105.65 58.34,0 105.64,-47.3 105.64,-105.65 0,-58.35 -47.3,-105.65 -105.64,-105.65 -58.35,0 -105.65,47.3 -105.65,105.65"
         inkscape:connector-curvature="0"
         id="path114"
         style="fill:#f8ccaa;fill-opacity:1;fill-rule:nonzero;stroke:none" /><path
         d="m 9274.67,6525.11 c 0,0 176.83,-49.04 129.53,-239.13 l -116.56,-62.22 c 0,0 147.13,-48.39 129.53,-239.13 l -136.98,-71.05 c 0,0 163.67,-58.61 129.52,-239.13 l -130.54,-70.38 c 0,0 133.77,-32.9 99.76,-184.17 l -183.33,-24.62 79.07,1129.83"
         inkscape:connector-curvature="0"
         id="path116"
         style="fill:#f8ccaa;fill-opacity:1;fill-rule:nonzero;stroke:none" /><path
         d="m 9009.96,6226.34 c 30.29,-56.19 17.91,-121.66 -27.66,-146.22 -45.57,-24.56 -107.06,1.08 -137.35,57.27 -30.29,56.19 -17.91,121.66 27.66,146.22 45.57,24.56 107.06,-1.08 137.35,-57.27"
         inkscape:connector-curvature="0"
         id="path118"
         style="fill:#e6d4c6;fill-opacity:1;fill-rule:nonzero;stroke:none" /><path
         d="m 8921.4,5875.77 c 30.29,-56.19 17.9,-121.66 -27.66,-146.22 -45.57,-24.56 -107.07,1.08 -137.36,57.27 -30.29,56.19 -17.9,121.65 27.67,146.22 45.57,24.56 107.06,-1.08 137.35,-57.27"
         inkscape:connector-curvature="0"
         id="path120"
         style="fill:#e6d4c6;fill-opacity:1;fill-rule:nonzero;stroke:none" /><path
         d="m 9012.23,5615.72 c 30.29,-56.19 17.9,-121.66 -27.67,-146.22 -45.56,-24.56 -107.06,1.08 -137.35,57.27 -30.29,56.19 -17.9,121.65 27.67,146.22 45.56,24.56 107.06,-1.08 137.35,-57.27"
         inkscape:connector-curvature="0"
         id="path122"
         style="fill:#e6d4c6;fill-opacity:1;fill-rule:nonzero;stroke:none" /><path
         d="m 9105.46,5383.87 c 24.83,-46.06 14.67,-99.73 -22.68,-119.86 -37.35,-20.13 -87.76,0.88 -112.59,46.94 -24.82,46.06 -14.67,99.72 22.68,119.86 37.35,20.13 87.76,-0.88 112.59,-46.94"
         inkscape:connector-curvature="0"
         id="path124"
         style="fill:#e6d4c6;fill-opacity:1;fill-rule:nonzero;stroke:none" /><path
         d="m 7472.37,6263.32 c 36.12,-67.01 15.7,-148.11 -45.61,-181.16 -61.31,-33.05 -140.29,-5.52 -176.41,61.48 -36.11,67 -15.69,148.11 45.62,181.16 61.31,33.04 140.28,5.52 176.4,-61.48"
         inkscape:connector-curvature="0"
         id="path126"
         style="fill:#e6d4c6;fill-opacity:1;fill-rule:nonzero;stroke:none" /><path
         d="m 9037.83,5473.34 241.34,130.73 c 0,0 35.51,-13.78 47.09,-22.8 11.57,-9.02 0,0 0,0 l -288.43,-107.93"
         inkscape:connector-curvature="0"
         id="path128"
         style="fill:#e9b17c;fill-opacity:1;fill-rule:nonzero;stroke:none" /><path
         d="m 9280.19,5913.58 c 0,0 46.54,-23.66 60.78,-36.5 14.25,-12.84 0,0 0,0 l -413.51,-157.71 352.73,194.21"
         inkscape:connector-curvature="0"
         id="path130"
         style="fill:#e9b17c;fill-opacity:1;fill-rule:nonzero;stroke:none" /><path
         d="m 8810.53,5965.33 477.11,258.43 c 0,0 49.5,-25.14 65.19,-41.9 l -542.3,-216.53"
         inkscape:connector-curvature="0"
         id="path132"
         style="fill:#e9b17c;fill-opacity:1;fill-rule:nonzero;stroke:none" /><path
         d="m 9144.18,5292.75 229.07,126.39 -229.07,-203.83 0,77.44"
         inkscape:connector-curvature="0"
         id="path134"
         style="fill:#e9b17c;fill-opacity:1;fill-rule:nonzero;stroke:none" /><path
         d="m 4575.18,2571.76 -3.83,70.52 -30.34,-16.35 10,-60.83 24.17,6.66"
         inkscape:connector-curvature="0"
         id="path136"
         style="fill:#f8ccaa;fill-opacity:1;fill-rule:nonzero;stroke:none" /><path
         d="m 3614.17,0 961.008,0 0,2571.76 -961.008,0 0,-2571.76 z"
         inkscape:connector-curvature="0"
         id="path138"
         style="fill:#f8ccaa;fill-opacity:1;fill-rule:nonzero;stroke:none" /><path
         d="m 2932.96,4311.74 c -51.12,-55.99 -79.58,-113.75 -79.58,-113.75 l 0,0 -12.66,-32.57 0,0 c 0,0 -66.91,-493.88 228.32,-1008.88 l 35.64,-59.49 0,0 79.97,-133.52 1809.88,-66.6 604.02,824.79 -2665.59,590.02"
         inkscape:connector-curvature="0"
         id="path140"
         style="fill:#f8ccaa;fill-opacity:1;fill-rule:nonzero;stroke:none" /><path
         d="m 3122.53,3067.24 c 0,0 214.35,-431.31 491.64,-431.31 l 0,-418.6 957.18,0 0,424.95 c 0,0 277.26,11.06 547.9,424.96 l -1996.72,0"
         inkscape:connector-curvature="0"
         id="path142"
         style="fill:#f8ccaa;fill-opacity:1;fill-rule:nonzero;stroke:none" /><path
         d="m 5339.93,3462.43 c 0,-263.07 -457.95,-476.33 -1022.85,-476.33 -564.91,0 -1022.86,213.26 -1022.86,476.33 0,263.08 457.95,476.34 1022.86,476.34 564.9,0 1022.85,-213.26 1022.85,-476.34"
         inkscape:connector-curvature="0"
         id="path144"
         style="fill:#e9b17c;fill-opacity:1;fill-rule:nonzero;stroke:none" /><path
         d="m 5363.81,3427.94 c 0,-69.74 -56.54,-126.27 -126.28,-126.27 l -1816.99,0 c -69.74,0 -126.28,56.53 -126.28,126.27 l 0,2258.88 c 0,69.74 56.54,126.28 126.28,126.28 l 1816.99,0 c 69.74,0 126.28,-56.54 126.28,-126.28 l 0,-2258.88"
         inkscape:connector-curvature="0"
         id="path146"
         style="fill:#343434;fill-opacity:1;fill-rule:nonzero;stroke:none" /><path
         d="m 3504.72,3555.51 1648.63,0 0,2006.41 -1648.63,0 0,-2006.41 z"
         inkscape:connector-curvature="0"
         id="path148"
         style="fill:#3a8ebe;fill-opacity:1;fill-rule:nonzero;stroke:none" /><path
         d="m 3539.8,3555.51 1613.55,0 0,1971.33 -1613.55,0 0,-1971.33 z"
         inkscape:connector-curvature="0"
         id="path150"
         style="fill:#60afd6;fill-opacity:1;fill-rule:nonzero;stroke:none" /><path
         d="m 4479.87,3413.06 c 0,-25.06 -20.32,-45.37 -45.38,-45.37 l -189.87,0 c -25.06,0 -45.37,20.31 -45.37,45.37 l 0,0 c 0,25.06 20.31,45.38 45.37,45.38 l 189.87,0 c 25.06,0 45.38,-20.32 45.38,-45.38 l 0,0"
         inkscape:connector-curvature="0"
         id="path152"
         style="fill:#1f1e1d;fill-opacity:1;fill-rule:nonzero;stroke:none" /><path
         d="m 3497.66,4642.47 -456.09,-247.05 0,0 c 0,0 -85.47,-56.74 -126.28,-103.96 l 143.76,-265.42 597.27,323.52 -158.66,292.91"
         inkscape:connector-curvature="0"
         id="path154"
         style="fill:#f8ccaa;fill-opacity:1;fill-rule:nonzero;stroke:none" /><path
         d="m 3294.22,4153.42 0,-326.34 -90.54,277.3 90.54,49.04"
         inkscape:connector-curvature="0"
         id="path156"
         style="fill:#e9b17c;fill-opacity:1;fill-rule:nonzero;stroke:none" /><path
         d="m 3754.86,4501.82 c 0,-92.8 -75.22,-168.03 -168.02,-168.03 -92.8,0 -168.03,75.23 -168.03,168.03 0,92.79 75.23,168.02 168.03,168.02 92.8,0 168.02,-75.23 168.02,-168.02"
         inkscape:connector-curvature="0"
         id="path158"
         style="fill:#f8ccaa;fill-opacity:1;fill-rule:nonzero;stroke:none" /><path
         d="m 5494.3,4826.92 129.53,-239.13 -415.79,-225.21 -129.53,239.13 415.79,225.21"
         inkscape:connector-curvature="0"
         id="path160"
         style="fill:#f8ccaa;fill-opacity:1;fill-rule:nonzero;stroke:none" /><path
         d="m 4998.06,4477.41 c 0,75.76 61.42,137.17 137.18,137.17 75.76,0 137.18,-61.41 137.18,-137.17 0,-75.76 -61.42,-137.18 -137.18,-137.18 -75.76,0 -137.18,61.42 -137.18,137.18"
         inkscape:connector-curvature="0"
         id="path162"
         style="fill:#f8ccaa;fill-opacity:1;fill-rule:nonzero;stroke:none" /><path
         d="m 5507.26,4525.57 129.53,-239.13 -512.73,-277.73 -129.53,239.13 512.73,277.73"
         inkscape:connector-curvature="0"
         id="path164"
         style="fill:#f8ccaa;fill-opacity:1;fill-rule:nonzero;stroke:none" /><path
         d="m 4914.08,4123.54 c 0,75.76 61.41,137.18 137.17,137.18 75.76,0 137.18,-61.42 137.18,-137.18 0,-75.76 -61.42,-137.18 -137.18,-137.18 -75.76,0 -137.17,61.42 -137.17,137.18"
         inkscape:connector-curvature="0"
         id="path166"
         style="fill:#f8ccaa;fill-opacity:1;fill-rule:nonzero;stroke:none" /><path
         d="m 5499.81,4215.4 129.53,-239.13 -417.3,-226.04 -129.53,239.13 417.3,226.04"
         inkscape:connector-curvature="0"
         id="path168"
         style="fill:#f8ccaa;fill-opacity:1;fill-rule:nonzero;stroke:none" /><path
         d="m 5002.06,3865.06 c 0,75.76 61.42,137.18 137.18,137.18 75.76,0 137.18,-61.42 137.18,-137.18 0,-75.76 -61.42,-137.18 -137.18,-137.18 -75.76,0 -137.18,61.42 -137.18,137.18"
         inkscape:connector-curvature="0"
         id="path170"
         style="fill:#f8ccaa;fill-opacity:1;fill-rule:nonzero;stroke:none" /><path
         d="m 5498.79,3905.89 99.76,-184.17 -297.67,-161.24 -99.76,184.17 297.67,161.24"
         inkscape:connector-curvature="0"
         id="path172"
         style="fill:#f8ccaa;fill-opacity:1;fill-rule:nonzero;stroke:none" /><path
         d="m 5139.16,3648.92 c 0,58.34 47.3,105.64 105.65,105.64 58.35,0 105.65,-47.3 105.65,-105.64 0,-58.35 -47.3,-105.65 -105.65,-105.65 -58.35,0 -105.65,47.3 -105.65,105.65"
         inkscape:connector-curvature="0"
         id="path174"
         style="fill:#f8ccaa;fill-opacity:1;fill-rule:nonzero;stroke:none" /><path
         d="m 5494.3,4826.92 c 0,0 176.82,-49.03 129.53,-239.13 l -116.57,-62.22 c 0,0 147.13,-48.39 129.53,-239.13 l -136.98,-71.04 c 0,0 163.68,-58.62 129.53,-239.13 l -130.55,-70.38 c 0,0 133.78,-32.91 99.76,-184.17 l -183.33,-24.62 79.08,1129.82"
         inkscape:connector-curvature="0"
         id="path176"
         style="fill:#f8ccaa;fill-opacity:1;fill-rule:nonzero;stroke:none" /><path
         d="m 5229.59,4528.16 c 30.29,-56.2 17.9,-121.66 -27.66,-146.22 -45.57,-24.57 -107.07,1.07 -137.36,57.27 -30.29,56.19 -17.9,121.65 27.67,146.21 45.57,24.57 107.06,-1.07 137.35,-57.26"
         inkscape:connector-curvature="0"
         id="path178"
         style="fill:#e6d4c6;fill-opacity:1;fill-rule:nonzero;stroke:none" /><path
         d="m 5141.02,4177.58 c 30.29,-56.19 17.91,-121.65 -27.66,-146.21 -45.57,-24.57 -107.06,1.07 -137.35,57.26 -30.29,56.2 -17.9,121.66 27.66,146.22 45.57,24.57 107.07,-1.07 137.35,-57.27"
         inkscape:connector-curvature="0"
         id="path180"
         style="fill:#e6d4c6;fill-opacity:1;fill-rule:nonzero;stroke:none" /><path
         d="m 5231.85,3917.53 c 30.29,-56.19 17.91,-121.65 -27.66,-146.21 -45.57,-24.57 -107.06,1.07 -137.35,57.26 -30.29,56.2 -17.91,121.66 27.66,146.22 45.57,24.57 107.06,-1.07 137.35,-57.27"
         inkscape:connector-curvature="0"
         id="path182"
         style="fill:#e6d4c6;fill-opacity:1;fill-rule:nonzero;stroke:none" /><path
         d="m 5325.08,3685.68 c 24.83,-46.06 14.68,-99.72 -22.67,-119.85 -37.35,-20.14 -87.76,0.88 -112.59,46.94 -24.83,46.06 -14.68,99.72 22.68,119.86 37.35,20.13 87.76,-0.89 112.58,-46.95"
         inkscape:connector-curvature="0"
         id="path184"
         style="fill:#e6d4c6;fill-opacity:1;fill-rule:nonzero;stroke:none" /><path
         d="m 3692,4565.13 c 36.11,-67 15.69,-148.11 -45.62,-181.16 -61.3,-33.04 -140.28,-5.52 -176.4,61.48 -36.12,67.01 -15.7,148.11 45.61,181.16 61.31,33.05 140.29,5.52 176.41,-61.48"
         inkscape:connector-curvature="0"
         id="path186"
         style="fill:#e6d4c6;fill-opacity:1;fill-rule:nonzero;stroke:none" /><path
         d="m 5257.45,3775.16 241.34,130.73 c 0,0 35.52,-13.78 47.09,-22.8 11.58,-9.02 0,0 0,0 l -288.43,-107.93"
         inkscape:connector-curvature="0"
         id="path188"
         style="fill:#e9b17c;fill-opacity:1;fill-rule:nonzero;stroke:none" /><path
         d="m 5499.81,4215.4 c 0,0 46.54,-23.66 60.79,-36.5 14.24,-12.85 0,0 0,0 l -413.52,-157.72 352.73,194.22"
         inkscape:connector-curvature="0"
         id="path190"
         style="fill:#e9b17c;fill-opacity:1;fill-rule:nonzero;stroke:none" /><path
         d="m 5030.16,4267.14 477.1,258.43 c 0,0 49.51,-25.14 65.2,-41.89 l -542.3,-216.54"
         inkscape:connector-curvature="0"
         id="path192"
         style="fill:#e9b17c;fill-opacity:1;fill-rule:nonzero;stroke:none" /><path
         d="m 5363.81,3594.57 229.07,126.39 -229.07,-203.83 0,77.44"
         inkscape:connector-curvature="0"
         id="path194"
         style="fill:#e9b17c;fill-opacity:1;fill-rule:nonzero;stroke:none" /><path
         d="m 1584.88,1347.53 3.82,70.52 30.34,-16.35 -10,-60.84 -24.16,6.67"
         inkscape:connector-curvature="0"
         id="path196"
         style="fill:#f8ccaa;fill-opacity:1;fill-rule:nonzero;stroke:none" /><path
         d="m 1584.88,21.1914 961,0 0,1326.34 -961,0 0,-1326.34 z"
         inkscape:connector-curvature="0"
         id="path198"
         style="fill:#f8ccaa;fill-opacity:1;fill-rule:nonzero;stroke:none" /><path
         d="m 3227.09,3087.51 c 51.12,-55.99 79.58,-113.76 79.58,-113.76 l 0,0 12.66,-32.57 0,0 c 0,0 66.91,-493.88 -228.32,-1008.88 l -35.64,-59.48 0,-0.01 -79.97,-133.52 -1809.88,-66.6 -604.02,824.79 2665.59,590.03"
         inkscape:connector-curvature="0"
         id="path200"
         style="fill:#f8ccaa;fill-opacity:1;fill-rule:nonzero;stroke:none" /><path
         d="m 3037.52,1843 c 0,0 -214.35,-431.3 -491.64,-431.3 l 0,-418.598 -957.18,0 0,424.948 c 0,0 -277.26,11.06 -547.9,424.95 l 1996.72,0"
         inkscape:connector-curvature="0"
         id="path202"
         style="fill:#f8ccaa;fill-opacity:1;fill-rule:nonzero;stroke:none" /><path
         d="m 820.121,2238.2 c 0,-263.07 457.949,-476.33 1022.849,-476.33 564.91,0 1022.86,213.26 1022.86,476.33 0,263.07 -457.95,476.34 -1022.86,476.34 -564.9,0 -1022.849,-213.27 -1022.849,-476.34"
         inkscape:connector-curvature="0"
         id="path204"
         style="fill:#e9b17c;fill-opacity:1;fill-rule:nonzero;stroke:none" /><path
         d="m 796.242,2203.71 c 0,-69.74 56.535,-126.28 126.278,-126.28 l 1816.99,0 c 69.74,0 126.28,56.54 126.28,126.28 l 0,2258.88 c 0,69.74 -56.54,126.28 -126.28,126.28 l -1816.99,0 c -69.743,0 -126.278,-56.54 -126.278,-126.28 l 0,-2258.88"
         inkscape:connector-curvature="0"
         id="path206"
         style="fill:#343434;fill-opacity:1;fill-rule:nonzero;stroke:none" /><path
         d="m 1006.7,2331.28 1648.63,0 0,2006.41 -1648.63,0 0,-2006.41 z"
         inkscape:connector-curvature="0"
         id="path208"
         style="fill:#f7c211;fill-opacity:1;fill-rule:nonzero;stroke:none" /><path
         d="m 1006.7,2331.28 1613.55,0 0,1971.33 -1613.55,0 0,-1971.33 z"
         inkscape:connector-curvature="0"
         id="path210"
         style="fill:#f4db47;fill-opacity:1;fill-rule:nonzero;stroke:none" /><path
         d="m 1680.18,2188.83 c 0,-25.06 20.32,-45.37 45.38,-45.37 l 189.87,0 c 25.06,0 45.37,20.31 45.37,45.37 l 0,0 c 0,25.06 -20.31,45.37 -45.37,45.37 l -189.87,0 c -25.06,0 -45.38,-20.31 -45.38,-45.37 l 0,0"
         inkscape:connector-curvature="0"
         id="path212"
         style="fill:#1f1e1d;fill-opacity:1;fill-rule:nonzero;stroke:none" /><path
         d="m 2662.39,3418.24 456.09,-247.05 0,0 c 0,0 85.47,-56.74 126.28,-103.97 L 3101,2801.81 l -597.27,323.52 158.66,292.91"
         inkscape:connector-curvature="0"
         id="path214"
         style="fill:#f8ccaa;fill-opacity:1;fill-rule:nonzero;stroke:none" /><path
         d="m 2865.83,2929.19 0,-326.34 90.54,277.29 -90.54,49.05"
         inkscape:connector-curvature="0"
         id="path216"
         style="fill:#e9b17c;fill-opacity:1;fill-rule:nonzero;stroke:none" /><path
         d="m 2405.19,3277.58 c 0,-92.8 75.22,-168.03 168.02,-168.03 92.8,0 168.03,75.23 168.03,168.03 0,92.8 -75.23,168.03 -168.03,168.03 -92.8,0 -168.02,-75.23 -168.02,-168.03"
         inkscape:connector-curvature="0"
         id="path218"
         style="fill:#f8ccaa;fill-opacity:1;fill-rule:nonzero;stroke:none" /><path
         d="M 665.754,3602.69 536.227,3363.56 952.008,3138.34 1081.54,3377.47 665.754,3602.69"
         inkscape:connector-curvature="0"
         id="path220"
         style="fill:#f8ccaa;fill-opacity:1;fill-rule:nonzero;stroke:none" /><path
         d="m 1161.99,3253.17 c 0,75.76 -61.42,137.18 -137.18,137.18 -75.759,0 -137.177,-61.42 -137.177,-137.18 0,-75.76 61.418,-137.17 137.177,-137.17 75.76,0 137.18,61.41 137.18,137.17"
         inkscape:connector-curvature="0"
         id="path222"
         style="fill:#f8ccaa;fill-opacity:1;fill-rule:nonzero;stroke:none" /><path
         d="m 652.789,3301.34 -129.531,-239.13 512.732,-277.73 129.53,239.13 -512.731,277.73"
         inkscape:connector-curvature="0"
         id="path224"
         style="fill:#f8ccaa;fill-opacity:1;fill-rule:nonzero;stroke:none" /><path
         d="m 1245.97,2899.31 c 0,75.76 -61.41,137.17 -137.17,137.17 -75.76,0 -137.179,-61.41 -137.179,-137.17 0,-75.76 61.419,-137.18 137.179,-137.18 75.76,0 137.17,61.42 137.17,137.18"
         inkscape:connector-curvature="0"
         id="path226"
         style="fill:#f8ccaa;fill-opacity:1;fill-rule:nonzero;stroke:none" /><path
         d="M 660.238,2991.16 530.711,2752.03 948.008,2526 1077.54,2765.13 660.238,2991.16"
         inkscape:connector-curvature="0"
         id="path228"
         style="fill:#f8ccaa;fill-opacity:1;fill-rule:nonzero;stroke:none" /><path
         d="m 1157.99,2640.83 c 0,75.76 -61.42,137.17 -137.18,137.17 -75.759,0 -137.177,-61.41 -137.177,-137.17 0,-75.76 61.418,-137.18 137.177,-137.18 75.76,0 137.18,61.42 137.18,137.18"
         inkscape:connector-curvature="0"
         id="path230"
         style="fill:#f8ccaa;fill-opacity:1;fill-rule:nonzero;stroke:none" /><path
         d="M 661.258,2681.65 561.5,2497.48 859.168,2336.25 958.926,2520.41 661.258,2681.65"
         inkscape:connector-curvature="0"
         id="path232"
         style="fill:#f8ccaa;fill-opacity:1;fill-rule:nonzero;stroke:none" /><path
         d="m 1020.89,2424.68 c 0,58.35 -47.304,105.65 -105.652,105.65 -58.347,0 -105.648,-47.3 -105.648,-105.65 0,-58.34 47.301,-105.64 105.648,-105.64 58.348,0 105.652,47.3 105.652,105.64"
         inkscape:connector-curvature="0"
         id="path234"
         style="fill:#f8ccaa;fill-opacity:1;fill-rule:nonzero;stroke:none" /><path
         d="m 665.754,3602.69 c 0,0 -176.824,-49.03 -129.527,-239.13 l 116.562,-62.22 c 0,0 -147.133,-48.39 -129.531,-239.13 l 136.98,-71.05 c 0,0 -163.672,-58.61 -129.527,-239.13 l 130.547,-70.38 c 0,0 -133.778,-32.9 -99.758,-184.17 l 183.328,-24.61 -79.074,1129.82"
         inkscape:connector-curvature="0"
         id="path236"
         style="fill:#f8ccaa;fill-opacity:1;fill-rule:nonzero;stroke:none" /><path
         d="m 930.461,3303.92 c -30.289,-56.19 -17.906,-121.65 27.664,-146.22 45.565,-24.56 107.065,1.08 137.355,57.27 30.29,56.19 17.9,121.66 -27.67,146.22 -45.57,24.56 -107.06,-1.08 -137.349,-57.27"
         inkscape:connector-curvature="0"
         id="path238"
         style="fill:#e6d4c6;fill-opacity:1;fill-rule:nonzero;stroke:none" /><path
         d="m 1019.03,2953.35 c -30.296,-56.19 -17.91,-121.66 27.66,-146.22 45.57,-24.56 107.06,1.08 137.35,57.27 30.29,56.19 17.9,121.66 -27.66,146.22 -45.57,24.56 -107.07,-1.08 -137.35,-57.27"
         inkscape:connector-curvature="0"
         id="path240"
         style="fill:#e6d4c6;fill-opacity:1;fill-rule:nonzero;stroke:none" /><path
         d="m 928.195,2693.3 c -30.289,-56.19 -17.902,-121.66 27.664,-146.22 45.571,-24.56 107.061,1.08 137.351,57.27 30.29,56.19 17.91,121.66 -27.66,146.22 -45.57,24.56 -107.066,-1.08 -137.355,-57.27"
         inkscape:connector-curvature="0"
         id="path242"
         style="fill:#e6d4c6;fill-opacity:1;fill-rule:nonzero;stroke:none" /><path
         d="m 834.969,2461.45 c -24.832,-46.06 -14.68,-99.72 22.672,-119.86 37.351,-20.13 87.761,0.88 112.589,46.95 24.829,46.06 14.676,99.72 -22.675,119.85 -37.352,20.14 -87.758,-0.88 -112.586,-46.94"
         inkscape:connector-curvature="0"
         id="path244"
         style="fill:#e6d4c6;fill-opacity:1;fill-rule:nonzero;stroke:none" /><path
         d="m 2468.05,3340.9 c -36.11,-67 -15.69,-148.11 45.62,-181.16 61.3,-33.05 140.28,-5.52 176.4,61.48 36.12,67 15.7,148.11 -45.61,181.16 -61.31,33.05 -140.29,5.52 -176.41,-61.48"
         inkscape:connector-curvature="0"
         id="path246"
         style="fill:#e6d4c6;fill-opacity:1;fill-rule:nonzero;stroke:none" /><path
         d="m 902.598,2550.92 -241.34,130.73 c 0,0 -35.512,-13.77 -47.09,-22.79 -11.578,-9.02 0,0 0,0 l 288.43,-107.94"
         inkscape:connector-curvature="0"
         id="path248"
         style="fill:#e9b17c;fill-opacity:1;fill-rule:nonzero;stroke:none" /><path
         d="m 660.238,2991.16 c 0,0 -46.543,-23.66 -60.785,-36.5 -14.246,-12.84 0,0 0,0 l 413.517,-157.71 -352.732,194.21"
         inkscape:connector-curvature="0"
         id="path250"
         style="fill:#e9b17c;fill-opacity:1;fill-rule:nonzero;stroke:none" /><path
         d="m 1129.89,3042.91 -477.101,258.43 c 0,0 -49.508,-25.14 -65.195,-41.89 l 542.296,-216.54"
         inkscape:connector-curvature="0"
         id="path252"
         style="fill:#e9b17c;fill-opacity:1;fill-rule:nonzero;stroke:none" /><path
         d="m 796.242,2370.33 -229.07,126.39 229.07,-203.83 0,77.44"
         inkscape:connector-curvature="0"
         id="path254"
         style="fill:#e9b17c;fill-opacity:1;fill-rule:nonzero;stroke:none" /><path
         d="m 6275.64,375.629 3.82,70.523 30.35,-16.363 -10,-60.828 -24.17,6.668"
         inkscape:connector-curvature="0"
         id="path256"
         style="fill:#fbcfab;fill-opacity:1;fill-rule:nonzero;stroke:none" /><path
         d="m 6275.64,28.2891 961,0 0,347.34 -961,0 0,-347.34 z"
         inkscape:connector-curvature="0"
         id="path258"
         style="fill:#fbcfab;fill-opacity:1;fill-rule:nonzero;stroke:none" /><path
         d="m 7917.85,2115.6 c 51.13,-55.98 79.59,-113.75 79.59,-113.75 l 0,0 12.66,-32.57 0,0 c 0,0 66.91,-493.88 -228.33,-1008.882 l -35.63,-59.488 0,0 -79.98,-133.519 -1809.87,-66.602 -604.03,824.791 2665.59,590.02"
         inkscape:connector-curvature="0"
         id="path260"
         style="fill:#fbcfab;fill-opacity:1;fill-rule:nonzero;stroke:none" /><path
         d="m 7728.28,871.102 c 0,0 -214.35,-431.301 -491.64,-431.301 l 0,-418.6096 -957.18,0 0,424.9606 c 0,0 -277.25,11.047 -547.9,424.95 l 1996.72,0"
         inkscape:connector-curvature="0"
         id="path262"
         style="fill:#fbcfab;fill-opacity:1;fill-rule:nonzero;stroke:none" /><path
         d="m 5510.89,1266.3 c 0,-263.07 457.94,-476.339 1022.85,-476.339 564.91,0 1022.85,213.269 1022.85,476.339 0,263.07 -457.94,476.33 -1022.85,476.33 -564.91,0 -1022.85,-213.26 -1022.85,-476.33"
         inkscape:connector-curvature="0"
         id="path264"
         style="fill:#e9b17c;fill-opacity:1;fill-rule:nonzero;stroke:none" /><path
         d="m 5487.01,1231.81 c 0,-69.75 56.53,-126.28 126.27,-126.28 l 1817,0 c 69.74,0 126.27,56.53 126.27,126.28 l 0,2258.88 c 0,69.74 -56.53,126.27 -126.27,126.27 l -1817,0 c -69.74,0 -126.27,-56.53 -126.27,-126.27 l 0,-2258.88"
         inkscape:connector-curvature="0"
         id="path266"
         style="fill:#343434;fill-opacity:1;fill-rule:nonzero;stroke:none" /><path
         d="m 5697.47,1359.37 1648.62,0 0,2006.41 -1648.62,0 0,-2006.41 z"
         inkscape:connector-curvature="0"
         id="path268"
         style="fill:#43ad55;fill-opacity:1;fill-rule:nonzero;stroke:none" /><path
         d="m 5697.47,1359.37 1613.55,0 0,1971.34 -1613.55,0 0,-1971.34 z"
         inkscape:connector-curvature="0"
         id="path270"
         style="fill:#5fc560;fill-opacity:1;fill-rule:nonzero;stroke:none" /><path
         d="m 6370.95,1216.93 c 0,-25.06 20.31,-45.38 45.37,-45.38 l 189.87,0 c 25.06,0 45.38,20.32 45.38,45.38 l 0,0 c 0,25.05 -20.32,45.37 -45.38,45.37 l -189.87,0 c -25.06,0 -45.37,-20.32 -45.37,-45.37 l 0,0"
         inkscape:connector-curvature="0"
         id="path272"
         style="fill:#1f1e1d;fill-opacity:1;fill-rule:nonzero;stroke:none" /><path
         d="m 7353.15,2446.33 456.09,-247.05 0,0 c 0,0 85.48,-56.74 126.29,-103.96 l -143.77,-265.42 -597.27,323.52 158.66,292.91"
         inkscape:connector-curvature="0"
         id="path274"
         style="fill:#fbcfab;fill-opacity:1;fill-rule:nonzero;stroke:none" /><path
         d="m 7556.59,1957.29 0,-326.35 90.55,277.3 -90.55,49.05"
         inkscape:connector-curvature="0"
         id="path276"
         style="fill:#e9b17c;fill-opacity:1;fill-rule:nonzero;stroke:none" /><path
         d="m 7095.95,2305.68 c 0,-92.8 75.23,-168.03 168.03,-168.03 92.8,0 168.03,75.23 168.03,168.03 0,92.8 -75.23,168.03 -168.03,168.03 -92.8,0 -168.03,-75.23 -168.03,-168.03"
         inkscape:connector-curvature="0"
         id="path278"
         style="fill:#f8ccaa;fill-opacity:1;fill-rule:nonzero;stroke:none" /><path
         d="m 5356.52,2630.78 -129.53,-239.13 415.78,-225.21 129.53,239.13 -415.78,225.21"
         inkscape:connector-curvature="0"
         id="path280"
         style="fill:#fbcfab;fill-opacity:1;fill-rule:nonzero;stroke:none" /><path
         d="m 5852.75,2281.27 c 0,75.76 -61.42,137.18 -137.18,137.18 -75.76,0 -137.17,-61.42 -137.17,-137.18 0,-75.76 61.41,-137.18 137.17,-137.18 75.76,0 137.18,61.42 137.18,137.18"
         inkscape:connector-curvature="0"
         id="path282"
         style="fill:#fbcfab;fill-opacity:1;fill-rule:nonzero;stroke:none" /><path
         d="m 5343.55,2329.44 -129.53,-239.13 512.74,-277.74 129.53,239.13 -512.74,277.74"
         inkscape:connector-curvature="0"
         id="path284"
         style="fill:#fbcfab;fill-opacity:1;fill-rule:nonzero;stroke:none" /><path
         d="m 5936.74,1927.4 c 0,75.76 -61.42,137.18 -137.18,137.18 -75.76,0 -137.17,-61.42 -137.17,-137.18 0,-75.76 61.41,-137.17 137.17,-137.17 75.76,0 137.18,61.41 137.18,137.17"
         inkscape:connector-curvature="0"
         id="path286"
         style="fill:#fbcfab;fill-opacity:1;fill-rule:nonzero;stroke:none" /><path
         d="m 5351,2019.26 -129.52,-239.13 417.29,-226.04 129.53,239.13 -417.3,226.04"
         inkscape:connector-curvature="0"
         id="path288"
         style="fill:#fbcfab;fill-opacity:1;fill-rule:nonzero;stroke:none" /><path
         d="m 5848.75,1668.92 c 0,75.76 -61.41,137.18 -137.17,137.18 -75.77,0 -137.18,-61.42 -137.18,-137.18 0,-75.76 61.41,-137.17 137.18,-137.17 75.76,0 137.17,61.41 137.17,137.17"
         inkscape:connector-curvature="0"
         id="path290"
         style="fill:#fbcfab;fill-opacity:1;fill-rule:nonzero;stroke:none" /><path
         d="m 5352.02,1709.75 -99.76,-184.17 297.67,-161.24 99.76,184.17 -297.67,161.24"
         inkscape:connector-curvature="0"
         id="path292"
         style="fill:#fbcfab;fill-opacity:1;fill-rule:nonzero;stroke:none" /><path
         d="m 5711.65,1452.78 c 0,58.35 -47.3,105.65 -105.65,105.65 -58.34,0 -105.64,-47.3 -105.64,-105.65 0,-58.35 47.3,-105.65 105.64,-105.65 58.35,0 105.65,47.3 105.65,105.65"
         inkscape:connector-curvature="0"
         id="path294"
         style="fill:#fbcfab;fill-opacity:1;fill-rule:nonzero;stroke:none" /><path
         d="m 5356.52,2630.78 c 0,0 -176.83,-49.03 -129.53,-239.13 l 116.56,-62.21 c 0,0 -147.13,-48.4 -129.53,-239.13 L 5351,2019.26 c 0,0 -163.67,-58.61 -129.52,-239.13 l 130.54,-70.38 c 0,0 -133.77,-32.9 -99.76,-184.17 l 183.33,-24.62 -79.07,1129.82"
         inkscape:connector-curvature="0"
         id="path296"
         style="fill:#fbcfab;fill-opacity:1;fill-rule:nonzero;stroke:none" /><path
         d="m 5621.23,2332.02 c -30.29,-56.19 -17.91,-121.66 27.66,-146.22 45.57,-24.56 107.06,1.08 137.35,57.27 30.29,56.19 17.9,121.65 -27.66,146.22 -45.57,24.56 -107.07,-1.08 -137.35,-57.27"
         inkscape:connector-curvature="0"
         id="path298"
         style="fill:#e6d4c6;fill-opacity:1;fill-rule:nonzero;stroke:none" /><path
         d="m 5709.79,1981.45 c -30.29,-56.19 -17.9,-121.66 27.66,-146.22 45.57,-24.56 107.07,1.08 137.36,57.27 30.28,56.19 17.9,121.65 -27.67,146.22 -45.57,24.56 -107.06,-1.08 -137.35,-57.27"
         inkscape:connector-curvature="0"
         id="path300"
         style="fill:#e6d4c6;fill-opacity:1;fill-rule:nonzero;stroke:none" /><path
         d="m 5618.96,1721.4 c -30.29,-56.19 -17.9,-121.66 27.66,-146.22 45.57,-24.56 107.07,1.08 137.36,57.27 30.29,56.19 17.9,121.65 -27.67,146.22 -45.56,24.56 -107.06,-1.08 -137.35,-57.27"
         inkscape:connector-curvature="0"
         id="path302"
         style="fill:#e6d4c6;fill-opacity:1;fill-rule:nonzero;stroke:none" /><path
         d="m 5525.73,1489.54 c -24.83,-46.06 -14.67,-99.72 22.68,-119.85 37.35,-20.14 87.76,0.88 112.58,46.94 24.83,46.06 14.68,99.72 -22.67,119.86 -37.35,20.13 -87.76,-0.89 -112.59,-46.95"
         inkscape:connector-curvature="0"
         id="path304"
         style="fill:#e6d4c6;fill-opacity:1;fill-rule:nonzero;stroke:none" /><path
         d="m 7158.82,2368.99 c -36.12,-67 -15.7,-148.11 45.61,-181.15 61.31,-33.05 140.29,-5.52 176.41,61.48 36.11,67 15.69,148.11 -45.62,181.15 -61.31,33.05 -140.28,5.53 -176.4,-61.48"
         inkscape:connector-curvature="0"
         id="path306"
         style="fill:#e6d4c6;fill-opacity:1;fill-rule:nonzero;stroke:none" /><path
         d="m 5593.36,1579.02 -241.34,130.73 c 0,0 -35.51,-13.78 -47.09,-22.8 -11.57,-9.02 0,0 0,0 l 288.43,-107.93"
         inkscape:connector-curvature="0"
         id="path308"
         style="fill:#e9b17c;fill-opacity:1;fill-rule:nonzero;stroke:none" /><path
         d="m 5351,2019.26 c 0,0 -46.54,-23.66 -60.78,-36.5 -14.25,-12.84 0,0 0,0 L 5703.73,1825.05 5351,2019.26"
         inkscape:connector-curvature="0"
         id="path310"
         style="fill:#e9b17c;fill-opacity:1;fill-rule:nonzero;stroke:none" /><path
         d="m 5820.65,2071 -477.1,258.44 c 0,0 -49.5,-25.14 -65.19,-41.9 L 5820.65,2071"
         inkscape:connector-curvature="0"
         id="path312"
         style="fill:#e9b17c;fill-opacity:1;fill-rule:nonzero;stroke:none" /><path
         d="m 5487.01,1398.43 -229.07,126.39 229.07,-203.83 0,77.44"
         inkscape:connector-curvature="0"
         id="path314"
         style="fill:#e9b17c;fill-opacity:1;fill-rule:nonzero;stroke:none" /></g></g></svg>